<?xml version="1.0" encoding="UTF-8"?><svg id="a" xmlns="http://www.w3.org/2000/svg" width="94.91" height="28.44" viewBox="0 0 94.91 28.44"><defs><style>.b{fill:#262626;opacity:.5;stroke:#848484;stroke-miterlimit:10;stroke-width:.75px;}.c{fill:#fff;stroke-width:0px;}</style></defs><rect class="b" x=".38" y=".38" width="94.16" height="27.69" rx="3" ry="3"/><path class="c" d="M14.22,22.53c-4.58,0-8.31-3.73-8.31-8.31s3.73-8.31,8.31-8.31,8.31,3.73,8.31,8.31-3.73,8.31-8.31,8.31ZM21.23,15.36c-.24-.08-2.19-.66-4.42-.3.93,2.55,1.31,4.63,1.38,5.06,1.59-1.08,2.73-2.78,3.04-4.76h0ZM17,20.77c-.11-.62-.52-2.79-1.52-5.38h-.05c-4.01,1.41-5.44,4.19-5.57,4.44,1.2.94,2.71,1.5,4.35,1.5.98,0,1.92-.2,2.77-.56h0ZM8.95,18.98c.16-.28,2.11-3.5,5.77-4.68.09-.03.19-.06.28-.08-.18-.41-.37-.81-.58-1.2-3.54,1.06-6.98,1.01-7.29,1.01v.22c0,1.82.69,3.49,1.82,4.75h0ZM7.27,12.78c.32,0,3.24.02,6.56-.86-1.18-2.09-2.44-3.85-2.63-4.1-1.99.93-3.47,2.76-3.93,4.96h0ZM12.56,7.33c.2.26,1.49,2.02,2.65,4.15,2.52-.95,3.59-2.38,3.72-2.56-1.25-1.11-2.9-1.79-4.7-1.79-.57,0-1.13.07-1.66.2h0ZM19.72,9.75c-.15.2-1.34,1.73-3.96,2.8.17.34.33.68.47,1.03.06.12.1.25.15.37,2.36-.3,4.71.18,4.94.23-.01-1.68-.61-3.21-1.6-4.42h0Z"/><path class="c" d="M33.47,19.6h-3.25v-10.52h3.39c1.02,0,1.89.21,2.62.63.73.42,1.28,1.02,1.67,1.8.39.78.58,1.72.58,2.81s-.2,2.04-.59,2.83c-.39.79-.96,1.4-1.71,1.82-.75.42-1.65.63-2.72.63ZM31.5,18.47h1.89c.87,0,1.59-.17,2.16-.5.57-.34,1-.81,1.28-1.43.28-.62.42-1.36.42-2.21s-.14-1.58-.42-2.2-.69-1.09-1.24-1.42c-.55-.33-1.24-.5-2.06-.5h-2.03v8.26Z"/><path class="c" d="M40.46,19.6v-7.89h1.17v1.19h.08c.14-.39.4-.71.78-.95.38-.24.8-.37,1.27-.37.09,0,.2,0,.33,0,.13,0,.23,0,.3.02v1.23s-.14-.03-.28-.05c-.15-.02-.3-.03-.46-.03-.38,0-.73.08-1.02.24-.3.16-.54.38-.71.66-.17.28-.26.6-.26.95v4.99h-1.21Z"/><path class="c" d="M46.46,10.39c-.24,0-.44-.08-.61-.24-.17-.16-.25-.35-.25-.58s.08-.42.25-.58.37-.24.61-.24.44.08.61.24.25.35.25.58-.08.42-.25.58c-.17.16-.37.24-.61.24ZM45.84,19.6v-7.89h1.21v7.89h-1.21Z"/><path class="c" d="M49.44,19.6v-10.52h1.21v3.88h.1c.09-.14.21-.31.37-.53.16-.21.39-.41.69-.58.3-.17.71-.25,1.22-.25.67,0,1.25.17,1.76.5.51.33.9.8,1.19,1.41.28.61.43,1.33.43,2.16s-.14,1.56-.43,2.17c-.28.61-.68,1.08-1.18,1.42-.5.33-1.08.5-1.74.5-.51,0-.91-.08-1.22-.25s-.54-.36-.7-.58c-.16-.22-.29-.4-.38-.54h-.14v1.21h-1.17ZM50.63,15.65c0,.6.09,1.12.26,1.57.17.45.43.81.77,1.06.34.26.75.38,1.23.38s.93-.14,1.27-.4c.34-.27.6-.63.77-1.09s.26-.97.26-1.53-.08-1.06-.25-1.5c-.17-.45-.43-.8-.77-1.06-.34-.26-.77-.39-1.28-.39s-.91.12-1.24.37-.59.59-.76,1.04c-.17.44-.26.96-.26,1.55Z"/><path class="c" d="M58.42,19.6v-10.52h1.21v3.88h.1c.09-.14.21-.31.37-.53s.39-.41.69-.58c.3-.17.71-.25,1.22-.25.66,0,1.25.17,1.76.5.51.33.9.8,1.19,1.41.28.61.43,1.33.43,2.16s-.14,1.56-.43,2.17c-.28.61-.68,1.08-1.18,1.42-.5.33-1.08.5-1.74.5-.51,0-.91-.08-1.22-.25s-.54-.36-.7-.58c-.16-.22-.29-.4-.38-.54h-.14v1.21h-1.17ZM59.61,15.65c0,.6.09,1.12.26,1.57.18.45.43.81.77,1.06.34.26.75.38,1.23.38s.93-.14,1.27-.4c.34-.27.6-.63.77-1.09s.26-.97.26-1.53-.08-1.06-.25-1.5c-.17-.45-.43-.8-.77-1.06-.34-.26-.77-.39-1.28-.39s-.91.12-1.24.37-.59.59-.76,1.04c-.17.44-.26.96-.26,1.55Z"/><path class="c" d="M67.4,19.6v-10.52h1.21v3.88h.1c.09-.14.21-.31.37-.53.16-.21.39-.41.69-.58.3-.17.71-.25,1.22-.25.67,0,1.25.17,1.76.5.51.33.9.8,1.19,1.41.28.61.43,1.33.43,2.16s-.14,1.56-.43,2.17c-.28.61-.68,1.08-1.18,1.42-.5.33-1.08.5-1.74.5-.51,0-.91-.08-1.22-.25s-.54-.36-.7-.58c-.16-.22-.29-.4-.38-.54h-.14v1.21h-1.17ZM68.59,15.65c0,.6.09,1.12.26,1.57.17.45.43.81.77,1.06.34.26.75.38,1.23.38s.93-.14,1.27-.4c.34-.27.6-.63.77-1.09s.26-.97.26-1.53-.08-1.06-.25-1.5c-.17-.45-.43-.8-.77-1.06-.34-.26-.77-.39-1.28-.39s-.91.12-1.24.37-.59.59-.76,1.04c-.17.44-.26.96-.26,1.55Z"/><path class="c" d="M77.43,9.07v10.52h-1.21v-10.52h1.21Z"/><path class="c" d="M82.96,19.76c-.76,0-1.42-.17-1.97-.51-.55-.34-.97-.81-1.27-1.42-.3-.61-.44-1.32-.44-2.12s.15-1.52.44-2.14.71-1.1,1.24-1.45,1.16-.52,1.87-.52c.41,0,.82.07,1.22.21.4.14.77.36,1.1.67s.59.71.79,1.22c.19.5.29,1.12.29,1.86v.51h-6.08v-1.05h4.85c0-.45-.09-.84-.26-1.19-.18-.35-.43-.63-.75-.83-.32-.2-.7-.3-1.14-.3-.48,0-.9.12-1.25.36-.35.24-.62.55-.81.93s-.28.79-.28,1.22v.7c0,.6.1,1.1.31,1.51.21.41.5.73.87.94s.8.32,1.29.32c.32,0,.61-.05.87-.14.26-.09.48-.23.67-.41.19-.18.33-.41.44-.69l1.17.33c-.12.4-.33.75-.62,1.05-.29.3-.65.53-1.08.7s-.91.25-1.44.25Z"/></svg>