<?xml version="1.0" encoding="UTF-8"?><svg id="a" xmlns="http://www.w3.org/2000/svg" width="96.38" height="28.35" viewBox="0 0 96.38 28.35"><defs><style>.b{fill:#93959e;}.b,.c{stroke-width:0px;}.c{fill:#fff;}</style></defs><rect class="b" width="96.38" height="28.35" rx="6" ry="6"/><path class="c" d="M31.2,19.68v-10.67h3.61c.84,0,1.52.15,2.06.45.53.3.93.71,1.19,1.22.26.51.39,1.08.39,1.71s-.13,1.2-.38,1.71c-.26.51-.65.92-1.18,1.23-.53.3-1.21.46-2.04.46h-2.58v-1.15h2.54c.57,0,1.03-.1,1.38-.3s.6-.47.76-.8c.16-.34.24-.72.24-1.15s-.08-.81-.24-1.15c-.16-.34-.41-.6-.76-.79s-.82-.29-1.4-.29h-2.27v9.53h-1.29Z"/><path class="c" d="M43.52,19.84c-.72,0-1.36-.17-1.9-.52-.54-.34-.97-.82-1.27-1.44-.3-.62-.46-1.34-.46-2.17s.15-1.56.46-2.18c.3-.62.73-1.11,1.27-1.45.54-.34,1.18-.52,1.9-.52s1.36.17,1.9.52.97.83,1.27,1.45.46,1.35.46,2.18-.15,1.55-.46,2.17c-.3.62-.73,1.1-1.27,1.44s-1.18.52-1.9.52ZM43.52,18.74c.55,0,1-.14,1.36-.42.35-.28.62-.65.79-1.11.17-.46.26-.96.26-1.49s-.09-1.03-.26-1.5c-.17-.46-.43-.84-.79-1.12-.35-.29-.81-.43-1.36-.43s-1,.14-1.35.43c-.35.28-.62.66-.79,1.12s-.26.96-.26,1.5.08,1.03.26,1.49.43.83.79,1.11c.35.28.81.42,1.35.42Z"/><path class="c" d="M49.02,19.68v-8h1.19v1.21h.08c.15-.4.41-.72.79-.96s.81-.37,1.29-.37c.09,0,.2,0,.34,0,.14,0,.24,0,.31.02v1.25s-.14-.03-.28-.05-.3-.03-.47-.03c-.39,0-.74.08-1.04.24-.3.16-.54.38-.72.67-.18.28-.26.61-.26.97v5.07h-1.23Z"/><path class="c" d="M58.46,11.67v1.04h-4.15v-1.04h4.15ZM55.52,9.75h1.23v7.63c0,.35.05.61.15.78.1.17.23.29.4.34.16.06.33.09.51.09.14,0,.25,0,.33-.02s.16-.03.21-.04l.25,1.11c-.08.03-.2.06-.35.1-.15.03-.34.05-.57.05-.35,0-.69-.07-1.02-.22-.33-.15-.61-.38-.82-.68-.22-.31-.33-.69-.33-1.16v-7.96Z"/><path class="c" d="M63.88,11.67v1.04h-4.31v-1.04h4.31ZM60.86,19.68v-9.11c0-.46.11-.84.32-1.15s.49-.54.84-.69.71-.23,1.09-.23c.3,0,.55.02.74.07s.33.09.43.14l-.35,1.06c-.06-.02-.15-.05-.26-.08-.11-.03-.25-.05-.43-.05-.41,0-.7.1-.88.31-.18.2-.27.51-.27.9v8.82h-1.23Z"/><path class="c" d="M68.53,19.84c-.72,0-1.36-.17-1.9-.52-.54-.34-.97-.82-1.27-1.44-.3-.62-.46-1.34-.46-2.17s.15-1.56.46-2.18c.3-.62.73-1.11,1.27-1.45.54-.34,1.18-.52,1.9-.52s1.36.17,1.9.52.97.83,1.27,1.45.46,1.35.46,2.18-.15,1.55-.46,2.17c-.3.62-.73,1.1-1.27,1.44s-1.18.52-1.9.52ZM68.53,18.74c.55,0,1-.14,1.36-.42.35-.28.62-.65.79-1.11.17-.46.26-.96.26-1.49s-.09-1.03-.26-1.5c-.17-.46-.43-.84-.79-1.12-.35-.29-.81-.43-1.36-.43s-1,.14-1.35.43c-.35.28-.62.66-.79,1.12s-.26.96-.26,1.5.08,1.03.26,1.49.43.83.79,1.11c.35.28.81.42,1.35.42Z"/><path class="c" d="M75.26,9v10.67h-1.23v-10.67h1.23Z"/><path class="c" d="M78.14,10.34c-.24,0-.45-.08-.62-.25s-.26-.36-.26-.59.09-.43.26-.59.38-.25.62-.25.45.08.62.25.26.36.26.59-.09.43-.26.59-.38.25-.62.25ZM77.51,19.68v-8h1.23v8h-1.23Z"/><path class="c" d="M84.25,19.84c-.72,0-1.36-.17-1.9-.52-.54-.34-.97-.82-1.27-1.44-.3-.62-.46-1.34-.46-2.17s.15-1.56.46-2.18c.3-.62.73-1.11,1.27-1.45.54-.34,1.18-.52,1.9-.52s1.36.17,1.9.52.97.83,1.27,1.45.46,1.35.46,2.18-.15,1.55-.46,2.17c-.3.62-.73,1.1-1.27,1.44s-1.18.52-1.9.52ZM84.25,18.74c.55,0,1-.14,1.36-.42.35-.28.62-.65.79-1.11.17-.46.26-.96.26-1.49s-.09-1.03-.26-1.5c-.17-.46-.43-.84-.79-1.12-.35-.29-.81-.43-1.36-.43s-1,.14-1.35.43c-.35.28-.62.66-.79,1.12s-.26.96-.26,1.5.08,1.03.26,1.49.43.83.79,1.11c.35.28.81.42,1.35.42Z"/><path class="c" d="M8.94,18.51c.72-.55,1.53-.99,2.42-1.31s1.83-.48,2.81-.48,1.91.16,2.81.48,1.7.75,2.42,1.31c.5-.58.88-1.24,1.16-1.98s.41-1.52.41-2.36c0-1.89-.66-3.49-1.99-4.82s-2.93-1.99-4.82-1.99-3.49.66-4.82,1.99c-1.33,1.33-1.99,2.93-1.99,4.82,0,.84.14,1.62.41,2.36s.66,1.4,1.16,1.98ZM14.17,15.02c-.84,0-1.54-.29-2.12-.86s-.86-1.28-.86-2.12.29-1.54.86-2.12,1.28-.86,2.12-.86,1.54.29,2.12.86.86,1.28.86,2.12-.29,1.54-.86,2.12-1.28.86-2.12.86ZM14.17,22.68c-1.18,0-2.28-.22-3.32-.67s-1.93-1.05-2.7-1.82-1.37-1.67-1.82-2.7-.67-2.14-.67-3.32.22-2.28.67-3.32,1.05-1.93,1.82-2.7,1.67-1.37,2.7-1.82,2.14-.67,3.32-.67,2.28.22,3.32.67,1.93,1.05,2.7,1.82,1.37,1.67,1.82,2.7.67,2.14.67,3.32-.22,2.28-.67,3.32-1.05,1.93-1.82,2.7-1.67,1.37-2.7,1.82-2.14.67-3.32.67ZM14.17,20.98c.75,0,1.46-.11,2.13-.33s1.28-.54,1.83-.95c-.55-.41-1.16-.73-1.83-.95-.67-.22-1.37-.33-2.13-.33s-1.46.11-2.13.33c-.67.22-1.28.54-1.83.95.55.41,1.16.73,1.83.95s1.37.33,2.13.33ZM14.17,13.32c.37,0,.67-.12.91-.36.24-.24.36-.55.36-.91s-.12-.67-.36-.91c-.24-.24-.55-.36-.91-.36s-.67.12-.91.36-.36.55-.36.91.12.67.36.91.55.36.91.36Z"/></svg>